REM DIRINDEX 1\2,1\3,1\4,1\5
REM DIRNAME cjc044,folder01,folder02,folder03,folder04
TITLE ""
FILE "1800_170.mp3" MP3
  TRACK 01 AUDIO
    TITLE "2:cjc044_5667"
    INDEX 01 00:00:00
  TRACK 02 AUDIO
    TITLE "0:"
    INDEX 01 00:01:01
  TRACK 03 AUDIO
    TITLE "3:cjc044_5668"
    INDEX 01 00:01:48
  TRACK 04 AUDIO
    TITLE "0:"
    INDEX 01 00:02:43
  TRACK 05 AUDIO
    TITLE "4:cjc044_5669"
    INDEX 01 00:03:15
  TRACK 06 AUDIO
    TITLE "0:"
    INDEX 01 00:04:35
  TRACK 07 AUDIO
    TITLE "2:cjc044_5670"
    INDEX 01 00:06:10
  TRACK 08 AUDIO
    TITLE "0:"
    INDEX 01 00:07:23
  TRACK 09 AUDIO
    TITLE "3:cjc044_5671"
    INDEX 01 00:08:01
  TRACK 10 AUDIO
    TITLE "0:"
    INDEX 01 00:09:06
  TRACK 11 AUDIO
    TITLE "4:cjc044_5672"
    INDEX 01 00:09:49
  TRACK 12 AUDIO
    TITLE "0:"
    INDEX 01 00:10:66
  TRACK 13 AUDIO
    TITLE "2:cjc044_5673"
    INDEX 01 00:12:40
  TRACK 14 AUDIO
    TITLE "0:"
    INDEX 01 00:13:51
  TRACK 15 AUDIO
    TITLE "3:cjc044_5674"
    INDEX 01 00:14:17
  TRACK 16 AUDIO
    TITLE "0:"
    INDEX 01 00:15:23
  TRACK 17 AUDIO
    TITLE "4:cjc044_5675"
    INDEX 01 00:15:72
  TRACK 18 AUDIO
    TITLE "0:"
    INDEX 01 00:17:04
  TRACK 19 AUDIO
    TITLE "2:cjc044_5676"
    INDEX 01 00:18:52
  TRACK 20 AUDIO
    TITLE "0:"
    INDEX 01 00:20:00
  TRACK 21 AUDIO
    TITLE "3:cjc044_5677"
    INDEX 01 00:20:45
  TRACK 22 AUDIO
    TITLE "0:"
    INDEX 01 00:21:57
  TRACK 23 AUDIO
    TITLE "4:cjc044_5678"
    INDEX 01 00:22:29
  TRACK 24 AUDIO
    TITLE "0:"
    INDEX 01 00:23:51
  TRACK 25 AUDIO
    TITLE "2:cjc044_5679"
    INDEX 01 00:25:25
  TRACK 26 AUDIO
    TITLE "0:"
    INDEX 01 00:26:44
  TRACK 27 AUDIO
    TITLE "3:cjc044_5680"
    INDEX 01 00:27:18
  TRACK 28 AUDIO
    TITLE "0:"
    INDEX 01 00:28:13
  TRACK 29 AUDIO
    TITLE "4:cjc044_5681"
    INDEX 01 00:28:59
  TRACK 30 AUDIO
    TITLE "0:"
    INDEX 01 00:30:06
  TRACK 31 AUDIO
    TITLE "2:cjc044_5682"
    INDEX 01 00:31:57
  TRACK 32 AUDIO
    TITLE "0:"
    INDEX 01 00:33:07
  TRACK 33 AUDIO
    TITLE "3:cjc044_5683"
    INDEX 01 00:33:56
  TRACK 34 AUDIO
    TITLE "0:"
    INDEX 01 00:34:71
  TRACK 35 AUDIO
    TITLE "4:cjc044_5684"
    INDEX 01 00:35:43
  TRACK 36 AUDIO
    TITLE "0:"
    INDEX 01 00:36:68
  TRACK 37 AUDIO
    TITLE "2:cjc044_5685"
    INDEX 01 00:38:43
  TRACK 38 AUDIO
    TITLE "0:"
    INDEX 01 00:39:54
  TRACK 39 AUDIO
    TITLE "3:cjc044_5686"
    INDEX 01 00:40:26
  TRACK 40 AUDIO
    TITLE "0:"
    INDEX 01 00:41:32
  TRACK 41 AUDIO
    TITLE "4:cjc044_5687"
    INDEX 01 00:42:04
  TRACK 42 AUDIO
    TITLE "0:"
    INDEX 01 00:43:11
  TRACK 43 AUDIO
    TITLE "2:cjc044_5688"
    INDEX 01 00:44:61
  TRACK 44 AUDIO
    TITLE "0:"
    INDEX 01 00:46:29
  TRACK 45 AUDIO
    TITLE "3:cjc044_5689"
    INDEX 01 00:46:74
  TRACK 46 AUDIO
    TITLE "0:"
    INDEX 01 00:48:38
  TRACK 47 AUDIO
    TITLE "4:cjc044_5690"
    INDEX 01 00:49:10
  TRACK 48 AUDIO
    TITLE "0:"
    INDEX 01 00:50:54
  TRACK 49 AUDIO
    TITLE "2:cjc044_5691"
    INDEX 01 00:52:30
  TRACK 50 AUDIO
    TITLE "0:"
    INDEX 01 00:53:53
  TRACK 51 AUDIO
    TITLE "3:cjc044_5692"
    INDEX 01 00:54:30
  TRACK 52 AUDIO
    TITLE "0:"
    INDEX 01 00:55:51
  TRACK 53 AUDIO
    TITLE "4:cjc044_5693"
    INDEX 01 00:56:24
  TRACK 54 AUDIO
    TITLE "0:"
    INDEX 01 00:57:50
  TRACK 55 AUDIO
    TITLE "2:cjc044_5694"
    INDEX 01 00:59:26
  TRACK 56 AUDIO
    TITLE "0:"
    INDEX 01 01:00:53
  TRACK 57 AUDIO
    TITLE "3:cjc044_5695"
    INDEX 01 01:01:25
  TRACK 58 AUDIO
    TITLE "0:"
    INDEX 01 01:02:46
  TRACK 59 AUDIO
    TITLE "4:cjc044_5696"
    INDEX 01 01:03:20
  TRACK 60 AUDIO
    TITLE "0:"
    INDEX 01 01:04:47
  TRACK 61 AUDIO
    TITLE "2:cjc044_5697"
    INDEX 01 01:06:18
  TRACK 62 AUDIO
    TITLE "0:"
    INDEX 01 01:07:35
  TRACK 63 AUDIO
    TITLE "3:cjc044_5698"
    INDEX 01 01:08:07
  TRACK 64 AUDIO
    TITLE "0:"
    INDEX 01 01:09:24
  TRACK 65 AUDIO
    TITLE "4:cjc044_5699"
    INDEX 01 01:09:69
  TRACK 66 AUDIO
    TITLE "0:"
    INDEX 01 01:11:11
  TRACK 67 AUDIO
    TITLE "2:cjc044_5700"
    INDEX 01 01:12:60
  TRACK 68 AUDIO
    TITLE "0:"
    INDEX 01 01:13:71
  TRACK 69 AUDIO
    TITLE "3:cjc044_5701"
    INDEX 01 01:14:47
  TRACK 70 AUDIO
    TITLE "0:"
    INDEX 01 01:16:22
  TRACK 71 AUDIO
    TITLE "4:cjc044_5702"
    INDEX 01 01:16:69
  TRACK 72 AUDIO
    TITLE "0:"
    INDEX 01 01:18:07
  TRACK 73 AUDIO
    TITLE "2:cjc044_5703"
    INDEX 01 01:19:56
  TRACK 74 AUDIO
    TITLE "0:"
    INDEX 01 01:21:10
  TRACK 75 AUDIO
    TITLE "3:cjc044_5704"
    INDEX 01 01:21:59
  TRACK 76 AUDIO
    TITLE "0:"
    INDEX 01 01:23:38
  TRACK 77 AUDIO
    TITLE "4:cjc044_5705"
    INDEX 01 01:24:10
  TRACK 78 AUDIO
    TITLE "0:"
    INDEX 01 01:25:41
  TRACK 79 AUDIO
    TITLE "2:cjc044_5706"
    INDEX 01 01:27:16
  TRACK 80 AUDIO
    TITLE "0:"
    INDEX 01 01:28:53
  TRACK 81 AUDIO
    TITLE "3:cjc044_5707"
    INDEX 01 01:29:31
  TRACK 82 AUDIO
    TITLE "0:"
    INDEX 01 01:30:44
  TRACK 83 AUDIO
    TITLE "4:cjc044_5708"
    INDEX 01 01:31:20
  TRACK 84 AUDIO
    TITLE "0:"
    INDEX 01 01:32:59
  TRACK 85 AUDIO
    TITLE "2:cjc044_5709"
    INDEX 01 01:34:36
  TRACK 86 AUDIO
    TITLE "0:"
    INDEX 01 01:35:47
  TRACK 87 AUDIO
    TITLE "3:cjc044_5710"
    INDEX 01 01:36:23
  TRACK 88 AUDIO
    TITLE "0:"
    INDEX 01 01:37:22
  TRACK 89 AUDIO
    TITLE "4:cjc044_5711"
    INDEX 01 01:37:73
  TRACK 90 AUDIO
    TITLE "0:"
    INDEX 01 01:39:10
  TRACK 91 AUDIO
    TITLE "2:cjc044_5712"
    INDEX 01 01:40:60
  TRACK 92 AUDIO
    TITLE "0:"
    INDEX 01 01:42:08
  TRACK 93 AUDIO
    TITLE "3:cjc044_5713"
    INDEX 01 01:42:57
  TRACK 94 AUDIO
    TITLE "0:"
    INDEX 01 01:43:68
  TRACK 95 AUDIO
    TITLE "4:cjc044_5714"
    INDEX 01 01:44:42
  TRACK 96 AUDIO
    TITLE "0:"
    INDEX 01 01:45:63
  TRACK 97 AUDIO
    TITLE "2:cjc044_5715"
    INDEX 01 01:47:37
  TRACK 98 AUDIO
    TITLE "0:"
    INDEX 01 01:49:00
  TRACK 99 AUDIO
    TITLE "3:cjc044_5716"
    INDEX 01 01:49:47
  TRACK 100 AUDIO
    TITLE "0:"
    INDEX 01 01:50:54
  TRACK 101 AUDIO
    TITLE "4:cjc044_5717"
    INDEX 01 01:51:27
  TRACK 102 AUDIO
    TITLE "0:"
    INDEX 01 01:52:65
  TRACK 103 AUDIO
    TITLE "2:cjc044_5718"
    INDEX 01 01:54:42
  TRACK 104 AUDIO
    TITLE "0:"
    INDEX 01 01:55:58
  TRACK 105 AUDIO
    TITLE "3:cjc044_5719"
    INDEX 01 01:56:34
  TRACK 106 AUDIO
    TITLE "0:"
    INDEX 01 01:58:36
  TRACK 107 AUDIO
    TITLE "4:cjc044_5720"
    INDEX 01 01:59:08
  TRACK 108 AUDIO
    TITLE "0:"
    INDEX 01 02:00:27
  TRACK 109 AUDIO
    TITLE "2:cjc044_5721"
    INDEX 01 02:02:03
  TRACK 110 AUDIO
    TITLE "0:"
    INDEX 01 02:03:47
  TRACK 111 AUDIO
    TITLE "3:cjc044_5722"
    INDEX 01 02:04:17
  TRACK 112 AUDIO
    TITLE "0:"
    INDEX 01 02:05:31
  TRACK 113 AUDIO
    TITLE "4:cjc044_5723"
    INDEX 01 02:06:05
  TRACK 114 AUDIO
    TITLE "0:"
    INDEX 01 02:07:47
